<svg width="800" height="600" viewBox="0 0 800 600" xmlns="http://www.w3.org/2000/svg">
<rect x="0" y="0" width="799" height="599" opacity="1" fill="#FFFFFF" stroke="none"/>
<line opacity="0.1" stroke="#000000" stroke-width="1" x1="35" y1="558" x2="785" y2="558"/>
<line opacity="0.1" stroke="#000000" stroke-width="1" x1="35" y1="553" x2="785" y2="553"/>
<line opacity="0.1" stroke="#000000" stroke-width="1" x1="35" y1="547" x2="785" y2="547"/>
<line opacity="0.1" stroke="#000000" stroke-width="1" x1="35" y1="542" x2="785" y2="542"/>
<line opacity="0.1" stroke="#000000" stroke-width="1" x1="35" y1="536" x2="785" y2="536"/>
<line opacity="0.1" stroke="#000000" stroke-width="1" x1="35" y1="531" x2="785" y2="531"/>
<line opacity="0.1" stroke="#000000" stroke-width="1" x1="35" y1="525" x2="785" y2="525"/>
<line opacity="0.1" stroke="#000000" stroke-width="1" x1="35" y1="520" x2="785" y2="520"/>
<line opacity="0.1" stroke="#000000" stroke-width="1" x1="35" y1="514" x2="785" y2="514"/>
<line opacity="0.1" stroke="#000000" stroke-width="1" x1="35" y1="509" x2="785" y2="509"/>
<line opacity="0.1" stroke="#000000" stroke-width="1" x1="35" y1="503" x2="785" y2="503"/>
<line opacity="0.1" stroke="#000000" stroke-width="1" x1="35" y1="498" x2="785" y2="498"/>
<line opacity="0.1" stroke="#000000" stroke-width="1" x1="35" y1="492" x2="785" y2="492"/>
<line opacity="0.1" stroke="#000000" stroke-width="1" x1="35" y1="487" x2="785" y2="487"/>
<line opacity="0.1" stroke="#000000" stroke-width="1" x1="35" y1="481" x2="785" y2="481"/>
<line opacity="0.1" stroke="#000000" stroke-width="1" x1="35" y1="476" x2="785" y2="476"/>
<line opacity="0.1" stroke="#000000" stroke-width="1" x1="35" y1="470" x2="785" y2="470"/>
<line opacity="0.1" stroke="#000000" stroke-width="1" x1="35" y1="465" x2="785" y2="465"/>
<line opacity="0.1" stroke="#000000" stroke-width="1" x1="35" y1="459" x2="785" y2="459"/>
<line opacity="0.1" stroke="#000000" stroke-width="1" x1="35" y1="454" x2="785" y2="454"/>
<line opacity="0.1" stroke="#000000" stroke-width="1" x1="35" y1="448" x2="785" y2="448"/>
<line opacity="0.1" stroke="#000000" stroke-width="1" x1="35" y1="443" x2="785" y2="443"/>
<line opacity="0.1" stroke="#000000" stroke-width="1" x1="35" y1="437" x2="785" y2="437"/>
<line opacity="0.1" stroke="#000000" stroke-width="1" x1="35" y1="432" x2="785" y2="432"/>
<line opacity="0.1" stroke="#000000" stroke-width="1" x1="35" y1="426" x2="785" y2="426"/>
<line opacity="0.1" stroke="#000000" stroke-width="1" x1="35" y1="421" x2="785" y2="421"/>
<line opacity="0.1" stroke="#000000" stroke-width="1" x1="35" y1="415" x2="785" y2="415"/>
<line opacity="0.1" stroke="#000000" stroke-width="1" x1="35" y1="410" x2="785" y2="410"/>
<line opacity="0.1" stroke="#000000" stroke-width="1" x1="35" y1="404" x2="785" y2="404"/>
<line opacity="0.1" stroke="#000000" stroke-width="1" x1="35" y1="399" x2="785" y2="399"/>
<line opacity="0.1" stroke="#000000" stroke-width="1" x1="35" y1="393" x2="785" y2="393"/>
<line opacity="0.1" stroke="#000000" stroke-width="1" x1="35" y1="388" x2="785" y2="388"/>
<line opacity="0.1" stroke="#000000" stroke-width="1" x1="35" y1="382" x2="785" y2="382"/>
<line opacity="0.1" stroke="#000000" stroke-width="1" x1="35" y1="377" x2="785" y2="377"/>
<line opacity="0.1" stroke="#000000" stroke-width="1" x1="35" y1="371" x2="785" y2="371"/>
<line opacity="0.1" stroke="#000000" stroke-width="1" x1="35" y1="366" x2="785" y2="366"/>
<line opacity="0.1" stroke="#000000" stroke-width="1" x1="35" y1="360" x2="785" y2="360"/>
<line opacity="0.1" stroke="#000000" stroke-width="1" x1="35" y1="355" x2="785" y2="355"/>
<line opacity="0.1" stroke="#000000" stroke-width="1" x1="35" y1="349" x2="785" y2="349"/>
<line opacity="0.1" stroke="#000000" stroke-width="1" x1="35" y1="344" x2="785" y2="344"/>
<line opacity="0.1" stroke="#000000" stroke-width="1" x1="35" y1="338" x2="785" y2="338"/>
<line opacity="0.1" stroke="#000000" stroke-width="1" x1="35" y1="333" x2="785" y2="333"/>
<line opacity="0.1" stroke="#000000" stroke-width="1" x1="35" y1="327" x2="785" y2="327"/>
<line opacity="0.1" stroke="#000000" stroke-width="1" x1="35" y1="322" x2="785" y2="322"/>
<line opacity="0.1" stroke="#000000" stroke-width="1" x1="35" y1="316" x2="785" y2="316"/>
<line opacity="0.1" stroke="#000000" stroke-width="1" x1="35" y1="311" x2="785" y2="311"/>
<line opacity="0.1" stroke="#000000" stroke-width="1" x1="35" y1="305" x2="785" y2="305"/>
<line opacity="0.1" stroke="#000000" stroke-width="1" x1="35" y1="300" x2="785" y2="300"/>
<line opacity="0.1" stroke="#000000" stroke-width="1" x1="35" y1="294" x2="785" y2="294"/>
<line opacity="0.1" stroke="#000000" stroke-width="1" x1="35" y1="289" x2="785" y2="289"/>
<line opacity="0.1" stroke="#000000" stroke-width="1" x1="35" y1="283" x2="785" y2="283"/>
<line opacity="0.1" stroke="#000000" stroke-width="1" x1="35" y1="278" x2="785" y2="278"/>
<line opacity="0.1" stroke="#000000" stroke-width="1" x1="35" y1="272" x2="785" y2="272"/>
<line opacity="0.1" stroke="#000000" stroke-width="1" x1="35" y1="267" x2="785" y2="267"/>
<line opacity="0.1" stroke="#000000" stroke-width="1" x1="35" y1="261" x2="785" y2="261"/>
<line opacity="0.1" stroke="#000000" stroke-width="1" x1="35" y1="256" x2="785" y2="256"/>
<line opacity="0.1" stroke="#000000" stroke-width="1" x1="35" y1="250" x2="785" y2="250"/>
<line opacity="0.1" stroke="#000000" stroke-width="1" x1="35" y1="245" x2="785" y2="245"/>
<line opacity="0.1" stroke="#000000" stroke-width="1" x1="35" y1="239" x2="785" y2="239"/>
<line opacity="0.1" stroke="#000000" stroke-width="1" x1="35" y1="234" x2="785" y2="234"/>
<line opacity="0.1" stroke="#000000" stroke-width="1" x1="35" y1="228" x2="785" y2="228"/>
<line opacity="0.1" stroke="#000000" stroke-width="1" x1="35" y1="223" x2="785" y2="223"/>
<line opacity="0.1" stroke="#000000" stroke-width="1" x1="35" y1="217" x2="785" y2="217"/>
<line opacity="0.1" stroke="#000000" stroke-width="1" x1="35" y1="212" x2="785" y2="212"/>
<line opacity="0.1" stroke="#000000" stroke-width="1" x1="35" y1="206" x2="785" y2="206"/>
<line opacity="0.1" stroke="#000000" stroke-width="1" x1="35" y1="201" x2="785" y2="201"/>
<line opacity="0.1" stroke="#000000" stroke-width="1" x1="35" y1="195" x2="785" y2="195"/>
<line opacity="0.1" stroke="#000000" stroke-width="1" x1="35" y1="190" x2="785" y2="190"/>
<line opacity="0.1" stroke="#000000" stroke-width="1" x1="35" y1="184" x2="785" y2="184"/>
<line opacity="0.1" stroke="#000000" stroke-width="1" x1="35" y1="179" x2="785" y2="179"/>
<line opacity="0.1" stroke="#000000" stroke-width="1" x1="35" y1="173" x2="785" y2="173"/>
<line opacity="0.1" stroke="#000000" stroke-width="1" x1="35" y1="168" x2="785" y2="168"/>
<line opacity="0.1" stroke="#000000" stroke-width="1" x1="35" y1="162" x2="785" y2="162"/>
<line opacity="0.1" stroke="#000000" stroke-width="1" x1="35" y1="157" x2="785" y2="157"/>
<line opacity="0.1" stroke="#000000" stroke-width="1" x1="35" y1="151" x2="785" y2="151"/>
<line opacity="0.1" stroke="#000000" stroke-width="1" x1="35" y1="146" x2="785" y2="146"/>
<line opacity="0.1" stroke="#000000" stroke-width="1" x1="35" y1="140" x2="785" y2="140"/>
<line opacity="0.1" stroke="#000000" stroke-width="1" x1="35" y1="135" x2="785" y2="135"/>
<line opacity="0.1" stroke="#000000" stroke-width="1" x1="35" y1="129" x2="785" y2="129"/>
<line opacity="0.1" stroke="#000000" stroke-width="1" x1="35" y1="124" x2="785" y2="124"/>
<line opacity="0.1" stroke="#000000" stroke-width="1" x1="35" y1="118" x2="785" y2="118"/>
<line opacity="0.1" stroke="#000000" stroke-width="1" x1="35" y1="113" x2="785" y2="113"/>
<line opacity="0.1" stroke="#000000" stroke-width="1" x1="35" y1="107" x2="785" y2="107"/>
<line opacity="0.1" stroke="#000000" stroke-width="1" x1="35" y1="102" x2="785" y2="102"/>
<line opacity="0.1" stroke="#000000" stroke-width="1" x1="35" y1="96" x2="785" y2="96"/>
<line opacity="0.1" stroke="#000000" stroke-width="1" x1="35" y1="91" x2="785" y2="91"/>
<line opacity="0.1" stroke="#000000" stroke-width="1" x1="35" y1="85" x2="785" y2="85"/>
<line opacity="0.1" stroke="#000000" stroke-width="1" x1="35" y1="80" x2="785" y2="80"/>
<line opacity="0.1" stroke="#000000" stroke-width="1" x1="35" y1="74" x2="785" y2="74"/>
<line opacity="0.1" stroke="#000000" stroke-width="1" x1="35" y1="69" x2="785" y2="69"/>
<line opacity="0.1" stroke="#000000" stroke-width="1" x1="35" y1="63" x2="785" y2="63"/>
<line opacity="0.1" stroke="#000000" stroke-width="1" x1="35" y1="58" x2="785" y2="58"/>
<line opacity="0.1" stroke="#000000" stroke-width="1" x1="35" y1="52" x2="785" y2="52"/>
<line opacity="0.1" stroke="#000000" stroke-width="1" x1="35" y1="47" x2="785" y2="47"/>
<line opacity="0.1" stroke="#000000" stroke-width="1" x1="35" y1="41" x2="785" y2="41"/>
<line opacity="0.1" stroke="#000000" stroke-width="1" x1="35" y1="36" x2="785" y2="36"/>
<line opacity="0.1" stroke="#000000" stroke-width="1" x1="35" y1="30" x2="785" y2="30"/>
<line opacity="0.1" stroke="#000000" stroke-width="1" x1="35" y1="25" x2="785" y2="25"/>
<line opacity="0.1" stroke="#000000" stroke-width="1" x1="35" y1="19" x2="785" y2="19"/>
<line opacity="0.1" stroke="#000000" stroke-width="1" x1="35" y1="14" x2="785" y2="14"/>
<line opacity="0.2" stroke="#000000" stroke-width="1" x1="35" y1="509" x2="785" y2="509"/>
<line opacity="0.2" stroke="#000000" stroke-width="1" x1="35" y1="454" x2="785" y2="454"/>
<line opacity="0.2" stroke="#000000" stroke-width="1" x1="35" y1="399" x2="785" y2="399"/>
<line opacity="0.2" stroke="#000000" stroke-width="1" x1="35" y1="344" x2="785" y2="344"/>
<line opacity="0.2" stroke="#000000" stroke-width="1" x1="35" y1="289" x2="785" y2="289"/>
<line opacity="0.2" stroke="#000000" stroke-width="1" x1="35" y1="234" x2="785" y2="234"/>
<line opacity="0.2" stroke="#000000" stroke-width="1" x1="35" y1="179" x2="785" y2="179"/>
<line opacity="0.2" stroke="#000000" stroke-width="1" x1="35" y1="124" x2="785" y2="124"/>
<line opacity="0.2" stroke="#000000" stroke-width="1" x1="35" y1="69" x2="785" y2="69"/>
<line opacity="0.2" stroke="#000000" stroke-width="1" x1="35" y1="14" x2="785" y2="14"/>
<polyline fill="none" opacity="1" stroke="#000000" stroke-width="1" points="34,15 34,565 "/>
<text x="25" y="509" dy="0.5ex" text-anchor="end" font-family="sans-serif" font-size="9.67741935483871" opacity="1" fill="#000000">
0.2
</text>
<polyline fill="none" opacity="1" stroke="#000000" stroke-width="1" points="29,509 34,509 "/>
<text x="25" y="454" dy="0.5ex" text-anchor="end" font-family="sans-serif" font-size="9.67741935483871" opacity="1" fill="#000000">
0.4
</text>
<polyline fill="none" opacity="1" stroke="#000000" stroke-width="1" points="29,454 34,454 "/>
<text x="25" y="399" dy="0.5ex" text-anchor="end" font-family="sans-serif" font-size="9.67741935483871" opacity="1" fill="#000000">
0.6
</text>
<polyline fill="none" opacity="1" stroke="#000000" stroke-width="1" points="29,399 34,399 "/>
<text x="25" y="344" dy="0.5ex" text-anchor="end" font-family="sans-serif" font-size="9.67741935483871" opacity="1" fill="#000000">
0.8
</text>
<polyline fill="none" opacity="1" stroke="#000000" stroke-width="1" points="29,344 34,344 "/>
<text x="25" y="289" dy="0.5ex" text-anchor="end" font-family="sans-serif" font-size="9.67741935483871" opacity="1" fill="#000000">
1.0
</text>
<polyline fill="none" opacity="1" stroke="#000000" stroke-width="1" points="29,289 34,289 "/>
<text x="25" y="234" dy="0.5ex" text-anchor="end" font-family="sans-serif" font-size="9.67741935483871" opacity="1" fill="#000000">
1.2
</text>
<polyline fill="none" opacity="1" stroke="#000000" stroke-width="1" points="29,234 34,234 "/>
<text x="25" y="179" dy="0.5ex" text-anchor="end" font-family="sans-serif" font-size="9.67741935483871" opacity="1" fill="#000000">
1.4
</text>
<polyline fill="none" opacity="1" stroke="#000000" stroke-width="1" points="29,179 34,179 "/>
<text x="25" y="124" dy="0.5ex" text-anchor="end" font-family="sans-serif" font-size="9.67741935483871" opacity="1" fill="#000000">
1.6
</text>
<polyline fill="none" opacity="1" stroke="#000000" stroke-width="1" points="29,124 34,124 "/>
<text x="25" y="69" dy="0.5ex" text-anchor="end" font-family="sans-serif" font-size="9.67741935483871" opacity="1" fill="#000000">
1.8
</text>
<polyline fill="none" opacity="1" stroke="#000000" stroke-width="1" points="29,69 34,69 "/>
<polyline fill="none" opacity="1" stroke="#000000" stroke-width="1" points="35,565 785,565 "/>
<text x="110" y="575" dy="0.76em" text-anchor="middle" font-family="sans-serif" font-size="9.67741935483871" opacity="1" fill="#000000">
0.1
</text>
<polyline fill="none" opacity="1" stroke="#000000" stroke-width="1" points="110,565 110,570 "/>
<text x="185" y="575" dy="0.76em" text-anchor="middle" font-family="sans-serif" font-size="9.67741935483871" opacity="1" fill="#000000">
0.2
</text>
<polyline fill="none" opacity="1" stroke="#000000" stroke-width="1" points="185,565 185,570 "/>
<text x="260" y="575" dy="0.76em" text-anchor="middle" font-family="sans-serif" font-size="9.67741935483871" opacity="1" fill="#000000">
0.3
</text>
<polyline fill="none" opacity="1" stroke="#000000" stroke-width="1" points="260,565 260,570 "/>
<text x="335" y="575" dy="0.76em" text-anchor="middle" font-family="sans-serif" font-size="9.67741935483871" opacity="1" fill="#000000">
0.4
</text>
<polyline fill="none" opacity="1" stroke="#000000" stroke-width="1" points="335,565 335,570 "/>
<text x="410" y="575" dy="0.76em" text-anchor="middle" font-family="sans-serif" font-size="9.67741935483871" opacity="1" fill="#000000">
0.5
</text>
<polyline fill="none" opacity="1" stroke="#000000" stroke-width="1" points="410,565 410,570 "/>
<text x="485" y="575" dy="0.76em" text-anchor="middle" font-family="sans-serif" font-size="9.67741935483871" opacity="1" fill="#000000">
0.6
</text>
<polyline fill="none" opacity="1" stroke="#000000" stroke-width="1" points="485,565 485,570 "/>
<text x="560" y="575" dy="0.76em" text-anchor="middle" font-family="sans-serif" font-size="9.67741935483871" opacity="1" fill="#000000">
0.7
</text>
<polyline fill="none" opacity="1" stroke="#000000" stroke-width="1" points="560,565 560,570 "/>
<text x="635" y="575" dy="0.76em" text-anchor="middle" font-family="sans-serif" font-size="9.67741935483871" opacity="1" fill="#000000">
0.8
</text>
<polyline fill="none" opacity="1" stroke="#000000" stroke-width="1" points="635,565 635,570 "/>
<text x="710" y="575" dy="0.76em" text-anchor="middle" font-family="sans-serif" font-size="9.67741935483871" opacity="1" fill="#000000">
0.9
</text>
<polyline fill="none" opacity="1" stroke="#000000" stroke-width="1" points="710,565 710,570 "/>
<text x="785" y="575" dy="0.76em" text-anchor="middle" font-family="sans-serif" font-size="9.67741935483871" opacity="1" fill="#000000">
1.0
</text>
<polyline fill="none" opacity="1" stroke="#000000" stroke-width="1" points="785,565 785,570 "/>
<circle cx="347" cy="449" r="3" opacity="1" fill="#E6194B" stroke="none" stroke-width="1"/>
<text x="353" y="449" dy="0.76em" text-anchor="start" font-family="sans-serif" font-size="12.096774193548388" opacity="1" fill="#000000">
0
</text>
<circle cx="785" cy="172" r="3" opacity="1" fill="#3CB44B" stroke="none" stroke-width="1"/>
<text x="791" y="172" dy="0.76em" text-anchor="start" font-family="sans-serif" font-size="12.096774193548388" opacity="1" fill="#000000">
1
</text>
<circle cx="270" cy="477" r="3" opacity="1" fill="#E6194B" stroke="none" stroke-width="1"/>
<text x="276" y="477" dy="0.76em" text-anchor="start" font-family="sans-serif" font-size="12.096774193548388" opacity="1" fill="#000000">
0
</text>
<circle cx="785" cy="164" r="3" opacity="1" fill="#3CB44B" stroke="none" stroke-width="1"/>
<text x="791" y="164" dy="0.76em" text-anchor="start" font-family="sans-serif" font-size="12.096774193548388" opacity="1" fill="#000000">
1
</text>
<circle cx="103" cy="538" r="3" opacity="1" fill="#E6194B" stroke="none" stroke-width="1"/>
<text x="109" y="538" dy="0.76em" text-anchor="start" font-family="sans-serif" font-size="12.096774193548388" opacity="1" fill="#000000">
0
</text>
<circle cx="785" cy="275" r="3" opacity="1" fill="#3CB44B" stroke="none" stroke-width="1"/>
<text x="791" y="275" dy="0.76em" text-anchor="start" font-family="sans-serif" font-size="12.096774193548388" opacity="1" fill="#000000">
1
</text>
<circle cx="255" cy="483" r="3" opacity="1" fill="#E6194B" stroke="none" stroke-width="1"/>
<text x="261" y="483" dy="0.76em" text-anchor="start" font-family="sans-serif" font-size="12.096774193548388" opacity="1" fill="#000000">
0
</text>
<circle cx="785" cy="173" r="3" opacity="1" fill="#3CB44B" stroke="none" stroke-width="1"/>
<text x="791" y="173" dy="0.76em" text-anchor="start" font-family="sans-serif" font-size="12.096774193548388" opacity="1" fill="#000000">
1
</text>
<circle cx="785" cy="204" r="3" opacity="1" fill="#3CB44B" stroke="none" stroke-width="1"/>
<text x="791" y="204" dy="0.76em" text-anchor="start" font-family="sans-serif" font-size="12.096774193548388" opacity="1" fill="#000000">
1
</text>
<circle cx="280" cy="474" r="3" opacity="1" fill="#E6194B" stroke="none" stroke-width="1"/>
<text x="286" y="474" dy="0.76em" text-anchor="start" font-family="sans-serif" font-size="12.096774193548388" opacity="1" fill="#000000">
0
</text>
<circle cx="785" cy="194" r="3" opacity="1" fill="#3CB44B" stroke="none" stroke-width="1"/>
<text x="791" y="194" dy="0.76em" text-anchor="start" font-family="sans-serif" font-size="12.096774193548388" opacity="1" fill="#000000">
1
</text>
<circle cx="785" cy="201" r="3" opacity="1" fill="#3CB44B" stroke="none" stroke-width="1"/>
<text x="791" y="201" dy="0.76em" text-anchor="start" font-family="sans-serif" font-size="12.096774193548388" opacity="1" fill="#000000">
1
</text>
<circle cx="785" cy="159" r="3" opacity="1" fill="#3CB44B" stroke="none" stroke-width="1"/>
<text x="791" y="159" dy="0.76em" text-anchor="start" font-family="sans-serif" font-size="12.096774193548388" opacity="1" fill="#000000">
1
</text>
<circle cx="57" cy="555" r="3" opacity="1" fill="#E6194B" stroke="none" stroke-width="1"/>
<text x="63" y="555" dy="0.76em" text-anchor="start" font-family="sans-serif" font-size="12.096774193548388" opacity="1" fill="#000000">
0
</text>
<circle cx="173" cy="513" r="3" opacity="1" fill="#E6194B" stroke="none" stroke-width="1"/>
<text x="179" y="513" dy="0.76em" text-anchor="start" font-family="sans-serif" font-size="12.096774193548388" opacity="1" fill="#000000">
0
</text>
<circle cx="286" cy="471" r="3" opacity="1" fill="#E6194B" stroke="none" stroke-width="1"/>
<text x="292" y="471" dy="0.76em" text-anchor="start" font-family="sans-serif" font-size="12.096774193548388" opacity="1" fill="#000000">
0
</text>
<circle cx="785" cy="265" r="3" opacity="1" fill="#3CB44B" stroke="none" stroke-width="1"/>
<text x="791" y="265" dy="0.76em" text-anchor="start" font-family="sans-serif" font-size="12.096774193548388" opacity="1" fill="#000000">
1
</text>
<circle cx="785" cy="477" r="3" opacity="1" fill="#E6194B" stroke="none" stroke-width="1"/>
<text x="791" y="477" dy="0.76em" text-anchor="start" font-family="sans-serif" font-size="12.096774193548388" opacity="1" fill="#000000">
0
</text>
<circle cx="166" cy="515" r="3" opacity="1" fill="#E6194B" stroke="none" stroke-width="1"/>
<text x="172" y="515" dy="0.76em" text-anchor="start" font-family="sans-serif" font-size="12.096774193548388" opacity="1" fill="#000000">
0
</text>
<circle cx="785" cy="215" r="3" opacity="1" fill="#3CB44B" stroke="none" stroke-width="1"/>
<text x="791" y="215" dy="0.76em" text-anchor="start" font-family="sans-serif" font-size="12.096774193548388" opacity="1" fill="#000000">
1
</text>
<circle cx="785" cy="267" r="3" opacity="1" fill="#3CB44B" stroke="none" stroke-width="1"/>
<text x="791" y="267" dy="0.76em" text-anchor="start" font-family="sans-serif" font-size="12.096774193548388" opacity="1" fill="#000000">
1
</text>
</svg>
